<?xml version="1.0" encoding="UTF-8" standalone="no"?>
<!-- Created with Inkscape (http://www.inkscape.org/) -->

<svg
   xmlns:dc="http://purl.org/dc/elements/1.1/"
   xmlns:cc="http://creativecommons.org/ns#"
   xmlns:rdf="http://www.w3.org/1999/02/22-rdf-syntax-ns#"
   xmlns:svg="http://www.w3.org/2000/svg"
   xmlns="http://www.w3.org/2000/svg"
   xmlns:sodipodi="http://sodipodi.sourceforge.net/DTD/sodipodi-0.dtd"
   xmlns:inkscape="http://www.inkscape.org/namespaces/inkscape"
   width="46.032856mm"
   height="26.834015mm"
   viewBox="0 0 46.032856 26.834015"
   version="1.1"
   id="svg3421"
   sodipodi:docname="arrow1.svg"
   inkscape:export-filename="C:\Users\kaja.piotrowska\github\banana\img\arrow1_black.png"
   inkscape:export-xdpi="96"
   inkscape:export-ydpi="96"
   inkscape:version="0.92.3 (2405546, 2018-03-11)">
  <defs
     id="defs3415" />
  <sodipodi:namedview
     id="base"
     pagecolor="#ffffff"
     bordercolor="#666666"
     borderopacity="1.0"
     inkscape:pageopacity="0.0"
     inkscape:pageshadow="2"
     inkscape:zoom="3.2581913"
     inkscape:cx="112.99818"
     inkscape:cy="72.512819"
     inkscape:document-units="mm"
     inkscape:current-layer="layer1"
     showgrid="false"
     inkscape:window-width="1920"
     inkscape:window-height="1001"
     inkscape:window-x="-9"
     inkscape:window-y="-9"
     inkscape:window-maximized="1" />
  <metadata
     id="metadata3418">
    <rdf:RDF>
      <cc:Work
         rdf:about="">
        <dc:format>image/svg+xml</dc:format>
        <dc:type
           rdf:resource="http://purl.org/dc/dcmitype/StillImage" />
      </cc:Work>
    </rdf:RDF>
  </metadata>
  <g
     inkscape:label="Layer 1"
     inkscape:groupmode="layer"
     id="layer1"
     transform="translate(-2.6859534,-3.1246599)">
    <g
       id="g2051"
       transform="matrix(0.35277777,0,0,-0.35277777,2.9762298,3.5839766)">
      <path
         d="m 0,0 c 0,0 0.542,0.072 1.561,0.207 1.023,0.12 2.492,0.384 4.44,0.536 1.936,0.219 4.279,0.346 6.968,0.49 1.345,0.022 2.778,0.044 4.288,0.069 1.509,-0.046 3.097,-0.058 4.752,-0.138 3.306,-0.179 6.894,-0.427 10.65,-1.002 3.761,-0.527 7.7,-1.284 11.728,-2.269 4.036,-0.962 8.141,-2.218 12.257,-3.665 4.13,-1.414 8.208,-3.178 12.225,-5.071 4.028,-1.883 7.883,-4.115 11.619,-6.401 3.746,-2.282 7.229,-4.844 10.526,-7.412 1.618,-1.322 3.218,-2.614 4.701,-3.976 1.518,-1.321 2.938,-2.685 4.314,-4.021 1.376,-1.334 2.616,-2.732 3.867,-4.03 1.196,-1.349 2.339,-2.665 3.392,-3.963 1.023,-1.324 2.064,-2.543 2.934,-3.796 0.873,-1.249 1.733,-2.409 2.48,-3.541 0.725,-1.146 1.403,-2.219 2.031,-3.21 0.607,-1.004 1.113,-1.958 1.595,-2.801 0.485,-0.842 0.897,-1.606 1.219,-2.29 0.331,-0.679 0.613,-1.255 0.842,-1.723 0.445,-0.938 0.682,-1.439 0.682,-1.439 0.226,-0.474 0.024,-1.04 -0.45,-1.265 -0.419,-0.198 -0.909,-0.064 -1.173,0.297 l -0.023,0.032 c 0,0 -0.322,0.441 -0.927,1.267 -0.613,0.818 -1.432,2.065 -2.588,3.573 -0.565,0.76 -1.191,1.601 -1.873,2.517 -0.705,0.896 -1.467,1.865 -2.28,2.9 -1.632,2.063 -3.551,4.322 -5.676,6.752 -1.071,1.207 -2.244,2.413 -3.401,3.711 -1.228,1.23 -2.442,2.558 -3.789,3.824 -2.61,2.619 -5.537,5.197 -8.623,7.794 -0.773,0.648 -1.581,1.266 -2.379,1.908 -0.798,0.646 -1.611,1.282 -2.454,1.887 -0.833,0.621 -1.671,1.247 -2.513,1.876 -0.862,0.602 -1.728,1.207 -2.598,1.814 -3.516,2.372 -7.178,4.672 -10.992,6.705 -3.809,2.035 -7.695,3.958 -11.656,5.541 -3.959,1.574 -7.918,3.009 -11.852,4.05 -0.974,0.291 -1.951,0.544 -2.925,0.77 -0.971,0.233 -1.933,0.465 -2.885,0.693 -1.924,0.367 -3.796,0.786 -5.646,1.041 -3.68,0.627 -7.2,0.928 -10.449,1.158 -1.627,0.09 -3.189,0.098 -4.672,0.148 -1.484,-0.021 -2.893,-0.041 -4.216,-0.06 C 11.71,-0.588 10.474,-0.658 9.331,-0.724 8.187,-0.791 7.153,-0.943 6.212,-1.032 4.339,-1.204 2.84,-1.475 1.828,-1.628 0.813,-1.789 0.273,-1.875 0.273,-1.875 c -0.517,-0.082 -1.002,0.271 -1.084,0.787 -0.082,0.517 0.271,1.002 0.788,1.084 C -0.018,-0.003 -0.007,-0.001 0,0"
         style="fill:#000000;fill-opacity:1;fill-rule:nonzero;stroke:none"
         id="path2053"
         inkscape:connector-curvature="0" />
    </g>
    <g
       id="g2055"
       transform="matrix(0.35277777,0,0,-0.35277777,47.722487,21.128818)">
      <path
         d="m 0,0 c -0.13,-0.978 -0.194,-1.943 -0.265,-2.894 -0.044,-0.963 -0.058,-1.929 -0.062,-2.894 -0.001,-1.932 0.141,-3.86 0.366,-5.775 0.121,-0.958 0.274,-1.91 0.437,-2.859 0.17,-0.948 0.387,-1.887 0.604,-2.823 0.465,-1.867 1.027,-3.703 1.65,-5.51 0.309,-0.895 -0.167,-1.872 -1.063,-2.181 -0.375,-0.128 -0.765,-0.121 -1.113,-0.001 l -0.268,0.091 -2.46,0.843 c -0.815,0.289 -1.641,0.553 -2.452,0.852 -0.811,0.296 -1.631,0.571 -2.44,0.871 l -2.43,0.894 c -1.619,0.599 -3.213,1.263 -4.786,2.004 -1.57,0.753 -3.126,1.552 -4.621,2.588 -0.451,0.312 -0.562,0.985 -0.25,1.436 0.189,0.272 0.49,0.482 0.799,0.482 h 0.019 c 0.923,0 1.811,-0.155 2.702,-0.259 0.881,-0.138 1.762,-0.308 2.625,-0.51 1.729,-0.392 3.421,-0.918 5.073,-1.54 1.65,-0.627 3.288,-1.293 4.893,-2.026 1.607,-0.729 3.189,-1.521 4.751,-2.347 l -2.443,-2.091 c -0.177,0.991 -0.328,1.983 -0.465,2.976 -0.131,0.995 -0.236,1.99 -0.338,2.985 -0.105,0.993 -0.174,1.988 -0.255,2.98 -0.077,0.992 -0.128,1.984 -0.177,2.977 -0.051,0.991 -0.073,1.983 -0.097,2.973 l -0.018,2.972 c 0.006,0.991 -0.057,1.98 -0.02,2.971 l 0.031,2.961 v 0.019 c 0,0.523 0.556,0.93 1.08,0.908 C -0.47,1.051 -0.017,0.609 -0.038,0.086 -0.04,0.058 0.004,0.027 0,0"
         style="fill:#000000;fill-opacity:1;fill-rule:nonzero;stroke:none"
         id="path2057"
         inkscape:connector-curvature="0" />
    </g>
  </g>
</svg>
